<svg xmlns="http://www.w3.org/2000/svg" viewBox="0 0 400 300" width="400" height="300" role="img" aria-label="교대근무의 빛과 끼니 시간">
  <defs>
    <linearGradient id="bgsw" x1="0" y1="0" x2="1" y2="1">
      <stop offset="0" stop-color="#020617"/><stop offset="0.5" stop-color="#1e293b"/><stop offset="1" stop-color="#1e3a8a"/>
    </linearGradient>
    <radialGradient id="moonG" cx="0.5" cy="0.5" r="0.5">
      <stop offset="0" stop-color="#bfdbfe" stop-opacity="0.4"/><stop offset="1" stop-color="#bfdbfe" stop-opacity="0"/>
    </radialGradient>
  </defs>
  <rect width="400" height="300" fill="url(#bgsw)"/>
  <g fill="#e0e7ff" opacity="0.4">
    <circle cx="44" cy="46" r="1.5"/><circle cx="110" cy="28" r="1"/><circle cx="70" cy="96" r="1.2"/>
    <circle cx="156" cy="52" r="1"/><circle cx="26" cy="140" r="1.1"/>
  </g>
  <circle cx="92" cy="96" r="62" fill="url(#moonG)"/>
  <path d="M108 62a36 36 0 1 0 0 68 40 40 0 0 1 0-68z" fill="#dbeafe"/>
  <!-- 몸의 시계와 근무 시간이 어긋난 상태 -->
  <g transform="translate(268 116)">
    <circle r="66" fill="#0f172a" opacity="0.6"/>
    <circle r="66" fill="none" stroke="#93c5fd" stroke-opacity="0.45" stroke-width="3"/>
    <path d="M0-66A66 66 0 0 1 57 33L0 0z" fill="#1d4ed8" opacity="0.5"/>
    <line x1="0" y1="0" x2="0" y2="-40" stroke="#bfdbfe" stroke-width="5" stroke-linecap="round"/>
    <line x1="0" y1="0" x2="-30" y2="18" stroke="#bfdbfe" stroke-width="5" stroke-linecap="round"/>
    <circle r="4.5" fill="#eff6ff"/>
    <text y="94" text-anchor="middle" font-family="ui-sans-serif,system-ui,-apple-system,'Segoe UI',sans-serif" font-size="15" font-weight="800" fill="#bfdbfe">몸의 시계</text>
  </g>
  <g transform="translate(28 224)">
    <rect width="150" height="36" rx="11" fill="#020617" opacity="0.66"/>
    <rect x="1" y="1" width="148" height="34" rx="10" fill="none" stroke="#60a5fa" stroke-opacity="0.5" stroke-width="2"/>
    <text x="75" y="25" text-anchor="middle" font-family="ui-sans-serif,system-ui,-apple-system,'Segoe UI',sans-serif" font-size="16" font-weight="800" fill="#93c5fd">빛부터 고친다</text>
  </g>
</svg>
